/* XPM */
static const char *const img_inspiration_xpm[] = {
/* columns rows colors chars-per-pixel */
"56 33 175 2 ",
"   c #EA2C2D",
".  c #EC382F",
"X  c #EB302E",
"o  c #EA2F31",
"O  c #EA3333",
"+  c #E8383B",
"@  c #EF492F",
"#  c #EE452F",
"$  c #F1532F",
"%  c #EF4530",
"&  c #EF4930",
"*  c #F15330",
"=  c #F56A2E",
"-  c #F5672E",
";  c #F87B2C",
":  c #EC4446",
">  c #EC4C4E",
",  c #EE5B4E",
"<  c #EC4F50",
"1  c #EC5455",
"2  c #ED585A",
"3  c #EE6A6B",
"4  c #EA6E71",
"5  c #FC8C29",
"6  c #FD9226",
"7  c #FC952A",
"8  c #F99D2E",
"9  c #FA9936",
"0  c #F6A431",
"q  c #F2AC34",
"w  c #EEB436",
"e  c #E4B43F",
"r  c #EDB53B",
"t  c #A7AB5F",
"y  c #ABAC5E",
"u  c #B6AD59",
"i  c #91A666",
"p  c #97A865",
"a  c #95A96B",
"s  c #90A66C",
"d  c #8BA57B",
"f  c #B2AD75",
"g  c #A1B37D",
"h  c #F8944C",
"j  c #D7B247",
"k  c #D4B249",
"l  c #C0AF53",
"z  c #FBA248",
"x  c #EAB747",
"c  c #EDBA4A",
"v  c #EFBE51",
"b  c #E4B65F",
"n  c #F1B656",
"m  c #D6A27F",
"M  c #FCAF62",
"N  c #F1C76D",
"B  c #EDC571",
"V  c #F1CB76",
"C  c #F2CC7A",
"Z  c #769FB2",
"A  c #7DA1A1",
"S  c #6699CE",
"D  c #699BCC",
"F  c #6D9CC6",
"G  c #7A82DD",
"H  c #6B97D1",
"J  c #6E9ED0",
"K  c #7D95D8",
"L  c #79A5D4",
"P  c #7DB1DF",
"I  c #89A581",
"U  c #93AB80",
"Y  c #A8AB94",
"T  c #A8B988",
"R  c #96A4BA",
"E  c #BFA2B8",
"W  c #F08486",
"Q  c #F08A8B",
"!  c #F18E81",
"~  c #DAA581",
"^  c #DEA884",
"/  c #E2AB86",
"(  c #E5AE88",
")  c #EDB48D",
"_  c #F1B78F",
"`  c #F6BB92",
"'  c #F6BF99",
"]  c #EAAFAC",
"[  c #F2A4A5",
"{  c #F3B7B8",
"}  c #F2BBBB",
"|  c #F3B4B5",
" . c #B5C39B",
".. c #9DC5BB",
"X. c #C9C798",
"o. c #F9C187",
"O. c #F2D18B",
"+. c #F6C39E",
"@. c #F3D99C",
"#. c #F2D697",
"$. c #C9D4B8",
"%. c #F6CAA6",
"&. c #FAD3AC",
"*. c #F4DBA3",
"=. c #EED4B7",
"-. c #F7D0B5",
";. c #FAD7B4",
":. c #F4E0B2",
">. c #9F9CC1",
",. c #A394C4",
"<. c #80AAD6",
"1. c #97BADD",
"2. c #BAD4C9",
"3. c #ABC7E3",
"4. c #A6DEFF",
"5. c #A9DFFF",
"6. c #ABDAF4",
"7. c #ADE0FF",
"8. c #B3E2FE",
"9. c #BAE5FE",
"0. c #CECCC4",
"q. c #CECDC9",
"w. c #D3D2CE",
"e. c #D6DECA",
"r. c #D6D9C9",
"t. c #CBC9DD",
"y. c #C0D0DD",
"u. c #D4D4D0",
"i. c #D9D9D7",
"p. c #DDDCD9",
"a. c #F5C7C8",
"s. c #ECDCCC",
"d. c #F7DBC7",
"f. c #F7DDCA",
"g. c #ECDFD2",
"h. c #F5D4D5",
"j. c #F6D7D8",
"k. c #F6DDDE",
"l. c #F5E7C4",
"z. c #F8E5CA",
"x. c #EBE4DD",
"c. c #E5E6DE",
"v. c #F7E1D2",
"b. c #F7E5D8",
"n. c #F7EBDD",
"m. c #F8ECD8",
"M. c #C3D7EB",
"N. c #C8DAEC",
"B. c #D6D8E6",
"V. c #E3DAE2",
"C. c #C1E7FE",
"Z. c #C5E9FD",
"A. c #CCEBFD",
"S. c #CCE7F5",
"D. c #D5EEFD",
"F. c #DDE8F3",
"G. c #DDF1FC",
"H. c #D6E6E3",
"J. c #EAE9E4",
"K. c #EDEDE9",
"L. c #E8E7E1",
"P. c #F6E2E3",
"I. c #F7EBEC",
"U. c #F2F2EE",
"Y. c #F8F2EB",
"T. c #ECF2F7",
"R. c #E2F2FC",
"E. c #ECF6FC",
"W. c #F4F5F4",
"Q. c #F8F6F3",
"!. c #F8F8F6",
"~. c #F1F7FA",
"^. c #F8F7F8",
"/. c #F6F9FB",
"(. c #F8FAFB",
/* pixels */
"(.(.(.(.(.(.(.(.(.(.(.(.(.(.(.(.(.(.(.(.(.(.(.(.(.(.(.(.(.(.(.(.(.(.(.(.(.(.(.(.(.(.(.(.(.(.(.(.(.(.(.(.(.(.(.(.",
"(.(.(.(.(.(.(.(.(.(.(.(.(.(.(.(.(.(.(.(.(.(.(.(.(.(./.(.(.(.(.(.(.(.(.(.(.(.N.1.3.E.(.(.(.(.(.(.(.(.(.(.(.(.(.(.",
"(.(.(.(.(.(.(.(.(.(.(.(.(.(.(.(.(.(.(.(.(.(.(.(.W.J.J.J.W.(.(.(.(.(.(.(.(.3.S S D L /.(.(.(.(.(.(.(.(.(.(.(.(.(.",
"(.(.(.(.(.(.(.(.(.(.(.(.(.(.(.(.(.(.(.(.(.(.W.W.J.J.J.J.J.W.W.(.(.(.(.(./.D S S S S N.(.(.(.(.(.(.(.(.(.(.(.(.(.",
"(.(.(.(.(.(.(.(.(.(.(.(.(.(.(.(.(.(.(.(.(.W.J.J.J.J.J.J.J.J.J.W.(.(.(.(.E.H S S S S 6.Q.(.(.(.(.(.(.(.(.(.(.(.(.",
"(.(.(.(.(.(.(.(.(.(.(.(.(.(.(.(.(.(.(.(.(.K.J.J.J.J.J.J.J.J.J.J.(.(.(./.9.P S D S L T.(.(.(.(.(.(.(.(.(.(.(.(.(.",
"(.(.(.(.(.(.(.(.(.(.(.(.(.(.^.(.(.(.(.(.(.K.J.J.J.J.J.J.J.J.J.J.(.(.(.A.7.8.3.L 1.F.(.(.(.(.(.!.Y.m.(.(.(.(.(.(.",
"(.(.(.(.(.(.(.(.(.(.(.(.(.(.W.a.P.(.(.(.(.W.J.J.J.J.J.J.J.J.J.W.(.(.(.7.7.~.(.(././.(.(.(.(.(.&.9 6 M Q.(.(.(.(.",
"(.(.(.(.(.(.(.(.(.(.(.(.(.P.:   O { (.(.(.(.W.w.i./.!.!.~.w.u.(.(.(.E.4.C.(.(.(.(.(.(.(.(.R.S.9 6 6 6 &.(.(.(.(.",
"(.(.(.(.R.D.A.D.(.(.(.(.(.Q       1 (.(.(.(.W.q.i.(.(.(.(.q.u.(.(.(.G.4.A.(.(.(.(.(.(./.Z.4.6.7 6 6 6 %.(.(.(.(.",
"(.(.(.8.4.4.4.4.G.(.(./.(.Q       > (.(.(.(.W.q.i.(.W.!.(.q.u.(.(.(.E.8.R.(.(.(.(.(.E.9.7.8.G.o.6 6 z Y.(.(.(.(.",
"(.(.(.9.Z.D.G.G.(.(.8.8.E.k.:   o E G.(.(.(.W.q.i.(.@.m.(.q.u.(.(.(.(.(.(.(.(.(.(.~.9.4.C./.(.(.z.;.Y.!.(.(.(.(.",
"(.(.(.(.(.(.(.(.(.(.A.4.8.(.I.a.V.4.8.(.(.(.~.0.i.Q.c V (.w.w.(.(.(.(.(.(./.I.h.h.B.4.9.(.(.(.(.(.(.(.(.(.(.(.(.",
"(.(.(.(.(.(.(.(.(.(.(.D.D.(.(.(.(.Z.4.D.(.(.W.0.r.@.w r z.0.u.(.(.(.(.k.Q >         + 4 } (.(.(.(.(.(.(.(.(.(.(.",
"(.(.(.(.(.(.(.(.(.(.(.(.(.(.(.(.(.E.4.9.(.(.#.x r w w w w x c l.(.I.W O     # $ $ @ O     2 h.(.(.(.(.(.(.(.(.(.",
"(.(.(.(.(.(.(.W. .a g e.(.(.(.(.(.(.8.4.(.(.Q.V w w w w w r *.(.P.1   . = 5 6 6 6 6 6 ; @   O | (.(.(.(.(.(.(.(.",
"(.(.(.(.(.(.(. .i i i a H.E.(.(.(.(.9.7.E.(.(.!.N w w w w *.(.I.>   $ 5 6 7 8 0 q 0 8 6 6 =   O { (.(.(.(.(.(.(.",
"(.(.(.(.(.(.(.a i i i i ..5.8.R.(.(.Z.7.~.(.(.(.V w w w w :.!.3 o * 6 6 q w w w w w w q 8 6 ;   + k.(.(.(.(.(.(.",
"(.(.(.(.(.(.(.g i i i i 2.9.5.5.D.(./.E.(.(.(.(.v r O.N r O.| X . 6 7 w w x u y t u j w w 0 6 -   3 (.(.(.(.(.(.",
"(.(.(.(.(.(.(.e.a i i T W.(.R.7.4.R.(.(.(.(.(.Q.C n.(.(.l.O.1   5 6 q w k i p i i i i u r B -.s.] 1 h.(.(.(.(.(.",
"(.(.(.(.(.(.(.(.L.$.e.W.(.(.(.E.7.R.(.(.(.(.(.(.(.(.(.(.(.j.  @ 6 8 w j i s A F F Z d s X.J.J.J.J.x.} (.(.(.(.(.",
"(.(.(.(.(.(.(.(.(.(.(./.(.(.(.(.(.(.(.(.(.(.(.(.(.(.(.(.(.[   = 6 q w t i Z S H S S D U c.J.J.J.J.L.L./.(.(.(.(.",
"(.(.(.(.(.(.(.(.(.(.(.(.(.(.(.(.(.(.(.(.(.(.(.(.(.(.(.(.^.W   ; 7 w e i I S H G G K 2.V.J.J.J.J.J.J.J.J.U.(.(.(.",
"(.(.(.(.(.(.(.(.(.(.(.(.(.(.P.b.b.b.b.b.b.b.b.b.b.b.b.b.j.m , h z n b f Y R >.,.,.t.K.J.J.J.J.J.J.J.J.J.J.W.(.(.",
"(.(.(.(.(.(.(.(.(.(.(.(.(.(.' ` ` ` ` ` ` ` ` ` ` ` ` ` ` ` ` ` ` ` ` ` ` ` ` ` ` x.J.J.J.J.J.J.J.J.J.J.J.K.(.(.",
"(.(.(.(.(.(.(.(.(.(.(.(.(.Q.` ` ` ` ` ` ` ` ` ` ` ` ` ` ` ` ` ` ` ` ` ` ` ` ` ` ` g.J.J.J.J.J.J.J.J.J.J.J.I.(.(.",
"(.(.(.(.(.(.(.(.(.(.(.(.(.b.` ` ` ` ` ` ` ` ` ` ` ` ` ` ` ` ` ` ` ` ` ` ` ` ` ` ` %.c.L.J.J.L.J.J.J.J.J.K.(.(.(.",
"(.(.(.(.(.(.(.(.(.(.(.(.Q.%.` ` ` ` ` ` ` ` ` ` ` ` ` ` ` ` ` ` ` ` ` ` ` ` ` ` ` ` ' b.W.W.W.W.W.W.W.W./.(.(.(.",
"(.(.(.(.(.(.(.(.(.(.(.(.-.` ` ` _ _ ` ` ` ` ` _ ` ` ` ` ` ` ` ` ` ` ` ` ` ` ` ` ` ` ` f.(.(.(.(.(.(.(.(.(.(.(.(.",
"(.(.(.(.(.(.(.(.(.(.(.v.` ` ` ` m ~ ` ` ` ` _ m / ` ` ` ` ` ` ` ` ` ` ` ` ` ` ` ` ` ` f.(.(.(.(.(.(.(.(.(.(.(.(.",
"(.(.(.(.(.(.(.(.(.(.I.' ` ` ` ` / m / ) ` ) ~ m _ ` ` ` ` ` ` ` ` ` ` ` ` ` ` ` ` ` ` f.(.(.(.(.(.(.(.(.(.(.(.(.",
"(.(.(.(.(.(.(.(.(.^.%.` ` ` ` ` _ / m m m m m / ` ` ` ` ` ` ` ` ` ` ` ` ` ` ` ` ` ` ` f.(.(.(.(.(.(.(.(.(.(.(.(.",
"(.(.(.(.(.(.(.(.(.z.` ` ` ` ` ` ` ` ) ^ ^ ^ ) ` ` ` ` ` ` ` ` ` ` ` ` ` ` ` ` ` ` ` ` f.(.(.(.(.(.(.(.(.(.(.(.(."
};
