/* XPM */
static const char *const img_gomechan_xpm[] = {
/* columns rows colors chars-per-pixel */
"59 33 213 2 ",
"   c #662220",
".  c #6E3D3B",
"X  c #745C5B",
"o  c #66605F",
"O  c #6F6C6C",
"+  c #B17C1A",
"@  c #845729",
"#  c #A75035",
"$  c #A5692C",
"%  c #B56A30",
"&  c #D87C28",
"*  c #C4723E",
"=  c #E57D2A",
"-  c #AA6F58",
";  c #847875",
":  c #846867",
">  c #B37068",
",  c #C67B45",
"<  c #AA8F2D",
"1  c #B99825",
"2  c #BFA034",
"3  c #B18F16",
"4  c #C39B16",
"5  c #EA891D",
"6  c #EC931A",
"7  c #EF9C16",
"8  c #DAAD0E",
"9  c #D5A80E",
"0  c #CDA51B",
"q  c #CCA416",
"w  c #D6A913",
"e  c #DCAF10",
"r  c #D1A81A",
"t  c #DDB217",
"y  c #E4B40D",
"u  c #EBBA0D",
"i  c #E8B70D",
"p  c #F5B40D",
"a  c #F4BE0A",
"s  c #F8BF0A",
"d  c #EDA716",
"f  c #F2AA11",
"g  c #F1A919",
"h  c #ECBA10",
"j  c #E2B619",
"k  c #E7B919",
"l  c #F4B919",
"z  c #CE933D",
"x  c #C98225",
"c  c #EC982A",
"v  c #E88F32",
"b  c #C7A327",
"n  c #CEA923",
"m  c #C8A62D",
"M  c #D3AD29",
"N  c #D6AE24",
"B  c #C3A53B",
"V  c #CAAA3B",
"C  c #C8A835",
"Z  c #D2AE31",
"A  c #D7B438",
"S  c #E5BC2C",
"D  c #F3B83B",
"F  c #EAB52F",
"G  c #F8C207",
"H  c #F7C20A",
"J  c #F8C209",
"K  c #F7C413",
"L  c #F7C61A",
"P  c #F8C71C",
"I  c #F8C71A",
"U  c #F7C825",
"Y  c #F8C923",
"T  c #F7CA2B",
"R  c #F8CA2C",
"E  c #F6C525",
"W  c #F7CD35",
"Q  c #F8CC33",
"!  c #F8CE3C",
"~  c #968750",
"^  c #B59A49",
"/  c #BDA242",
"(  c #BDA658",
")  c #A49A72",
"_  c #BBAD7C",
"`  c #BEAD73",
"'  c #B8A669",
"]  c #C98556",
"[  c #E79046",
"{  c #C4A946",
"}  c #C8AE52",
"|  c #CEB357",
" . c #F2B642",
".. c #E9A357",
"X. c #F0AF59",
"o. c #EEB55D",
"O. c #ECA148",
"+. c #C89F6C",
"@. c #D0A168",
"#. c #C6B269",
"$. c #C3B171",
"%. c #C8B87A",
"&. c #D4B87F",
"*. c #EFB26E",
"=. c #DEC154",
"-. c #EBC84B",
";. c #F3C745",
":. c #F8D24C",
">. c #F8D148",
",. c #EACA56",
"<. c #F9D454",
"1. c #F9D65B",
"2. c #F9D85F",
"3. c #F7D558",
"4. c #DFC465",
"5. c #D6C37A",
"6. c #F5CD6C",
"7. c #F9D965",
"8. c #F4D56C",
"9. c #FADA6A",
"0. c #EFD67C",
"q. c #FADD74",
"w. c #F7DA78",
"e. c #AAA38A",
"r. c #BAB08B",
"t. c #ADA997",
"y. c #B2AE9C",
"u. c #B1AD96",
"i. c #BCB69B",
"p. c #B6A18A",
"a. c #A9A8A8",
"s. c #B0AEAD",
"d. c #B4B1A4",
"f. c #BAB6A3",
"g. c #BDB9A4",
"h. c #B5B4AB",
"j. c #B9B7AB",
"k. c #BDB9AC",
"l. c #B6B4B3",
"z. c #BCBAB3",
"x. c #BCBBB8",
"c. c #C1B58C",
"v. c #C6B988",
"b. c #C7AC94",
"n. c #C3BB9B",
"m. c #CBB89D",
"M. c #C6BFA3",
"N. c #C1BEAC",
"B. c #C9BAA2",
"V. c #C1BFB5",
"C. c #CFC288",
"Z. c #CCC298",
"A. c #DED09B",
"S. c #D4C692",
"D. c #F3C589",
"F. c #F9DF81",
"G. c #EADA9C",
"H. c #E6D597",
"J. c #F7D797",
"K. c #FAE185",
"L. c #FBE38C",
"P. c #FAE594",
"I. c #FAE69A",
"U. c #F5E093",
"Y. c #C7C0A6",
"T. c #CBC3A5",
"R. c #CCC6AB",
"E. c #CFC9AC",
"W. c #D3CAA3",
"Q. c #DACFA4",
"!. c #D1CAAB",
"~. c #D8CFA8",
"^. c #DAD0A5",
"/. c #DCD3AC",
"(. c #C5C2B3",
"). c #C9C5B4",
"_. c #C3C2BC",
"`. c #CCC8B2",
"'. c #D2CDB5",
"]. c #D8D4BA",
"[. c #E4D9AD",
"{. c #E4D8A6",
"}. c #E3DAB0",
"|. c #E9DEB1",
" X c #F4D8AE",
".X c #EEE0A5",
"XX c #FCEBAC",
"oX c #F9E8A6",
"OX c #EDE2B5",
"+X c #F2E6B4",
"@X c #FCEDB3",
"#X c #F6EABA",
"$X c #FCEEBC",
"%X c #F2E7B8",
"&X c #FCF0BD",
"*X c #C5C4C2",
"=X c #CAC9C6",
"-X c #CCCCCA",
";X c #D0CECC",
":X c #D2D1CD",
">X c #DAD3C8",
",X c #D4D4D3",
"<X c #D8D5D3",
"1X c #DCDCDC",
"2X c #D8D8D7",
"3X c #E1DEDA",
"4X c #FDF4CF",
"5X c #E6E6E6",
"6X c #EBEBEA",
"7X c #EAE8E5",
"8X c #F0EFEE",
"9X c #F4F4F3",
"0X c #FDFDFD",
/* pixels */
"5X5X2X5X5X5X5X5X5X5X5X5X5X5X5X5X5X5X5X5X5X5X5X5X5X5X5X5X5X5X5X5X5X5X5X5X5X5X5X5X5X5X5X5X5X5X5X5X5X5X5X5X5X5X5X,X5X5X5X",
"5X5X!.R.,X5X5X5X5X5X5X5X5X5X5X5X5X5X5X5X5X5X5X5X5X5X5X5X5X5X5X5X5X5X5X5X5X5X5X5X5X5X5X5X5X5X5X5X5X5X5X5X5X5X_.}._.5X5X",
"5X5X!.$XE.,X5X5X5X5X5X5X5X5X5X5X5X5X5X5X5X5X5X5X5X5X5X5X5X5X5X5X5X5X5X5X5X5X5X5X5X5X6X5X5X5X5X5X5X5X5X5X5Xz.%X$X_.5X5X",
"5X5X).:.$X~.=X5X5X5X5X5X5X5X5X5X5X5X5X5X5X5X5X5X5X5X5X5X5X5X5X5X5X5X5X5X5X5X5X5X5X5X5X5X5X5X5X5X5X5X5X5Xk.#X@XC.1X5X5X",
"5X5X:Xj <.&X/.*X5X5X5X5X5X5X5X5X5X5X5X5X5X5X5X5X5X5X5X5X5X5X5X5X5X5X5X5X5X5X5X5X5X5X5X5X5X5X5X5X5X5X1Xg.$X@XQ ' 5X5X5X",
"5X5X7X#.J 9.&X[.x.5X5X5X5X5X5X5X5X5X5X5X5X5X5X5X5X5X5X5X5X5X5X5X5X5X5X5X5X5X5X5X5X5X5X5X5X5X5X5X5X1Xg.&X@XW e =X5X5X5X",
"5X5X5X2XN J q.&XOXf.1X5X5X5X5X5X5X5X5X5X5X5X5X5X5X5X5X6X5X5X5X5X5X5X5X5X5X5X5X5X5X5X5X5X5X5X5X5X=XT.&XXXQ a _ 7X5X5X5X",
"5X(._.5X).h H 7.@X4XY._.5X5X5X5X6X5X5X5X5X5X5X5X5X5X5X5X5X5X5X5X5X5X5X5X5X5X5X5X5X5X5X5X5X5X1Xj.[.&XoXU H { 5X,Xz.-X5X",
"5XW.@XM.:Xr.H G >.@X&XOXf.,X5X5X5X5X5X5X5X5X5X5X5X5X5X5X5X*X5X5X5X5X5X5X5X5X5X5X5X5X5X5X5Xz.Y.&X&XK.K H m :Xk.Q.&Xk.5X",
"5X#.! XX/.z.r.G G Y P.$X$X/.k.5X5X5X5X5X5X5X5X5X5X5X5X5X5Xy.5X5X5X5X5X5X5X5X5X5X5X5X5X:XT.#X&XXX:.J G m z.g.#X&XG.=X5X",
"5X,Xj P L.$XZ.) i H J <.@X$X$X(.5X5X5X5X5X5X5X5X5X5X5X5X_.OX-X5X5X5X5X5X5X5X5X5X5X5X5XR.$XXX7.K G G 1 t./.&Xw.E ' 5X5X",
"5X5XM.i J :.XX$X_ b H J L q.$XN.5X5X5X5X5X5X5X5X5X5X5X,XQ.9.f.5X5X5X5X5X5X5X5X5X5X5X-X[.@XL H H y ^ W.&XU.T H 2 1X5X5X",
"5X5X5Xc.u J K 6.@X$X5.a H H oX^.:X5X5X5X5X5X5X5X5X5X1Xi.3.H H.V.5X5X5X5X5X5X5X5X5X5Xj.$X9.G G S {.&XJ.D a s C ,X5X5X5X",
"5X5X5X5Xc.u G p c X.J.9.H G :.&Xd.5X5X5X5X5X5X5X5X:XY.&X&Xg Y G.j.5X5X5X5X5X5X5X5X:XQ.@XK G Q oXD.[ 6 a a 2 -X5X5X5X5X",
"5X5X5X5X5XY.t J a f 5 5 6 G H I./._.5X5X5X5X5X1XV.H.@X&X*.p G P I.T.=X5X5X5X5X5X5Xf.$X<.G G D = 5 p G H ^ ,X5X5X5X5X5X",
"5X5X5X5X5X5X:X{ u G G s p s H T $Xn.1X5X5X5X*XW.8. .D.X.F G H G H 1.[.N.1X5X5X5XV.OXP.H s s f a G G q r.5X5X5X5X5X5X5X",
"5X5X5X,XR.W.'.).) < w u G G G G 7.$Xt.5X1Xk. X .v , ] ! K H G t V m l q.^._.5X=XW.XXP H J G J e 3 ~ d.`.T.!._.5X5X5X5X",
"5X5X5X,X[.$X$X$X4X$X+XH.q.! G G s L.#Xu.M.I.N b.9X0X0X].t H ( 8X0X0X>Xm Y G.t.!.@XT G G H H 3.H.#X&X$XXXP.K.k.5X5X5X5X",
"5X5X5X5XV.{.U L L U Q ! O.v H G H K J.n.P.d B.0X0X0X6X9Xv.m 8X5X0X0X0X6XN P .XS.T G G G G H c v F I K H H B 1X5X5X5X5X",
"5X5X5X5X5X=X#.y G G G G J K G G G G B XXl , 0X0X0X*Xa.O 5X_ s.x.o 0X0X0XZ.H R A.i G G H H J a G G G H 0 _ 1X5X5X5X5X5X",
"5X5X5X5X5X5X5X-Xv.} n e u w S G G H C.<.5 &.0X0X0XX h.. =Xa.O s.  2X0X0X5Xi J F.V H G H w e 8 q C #.j.1X5X5X5X5X5X5X5X",
"5X5X5X5X5X5X5X5X_.).E.Z.S.q.P G G q +Xl 7 C.0X0X0X- @ ; :Xe.> @ ; -X0X0X9Xw 7 >.` H G H T =.r.R.E.(.:X5X5X5X5X5X5X5X5X",
"5X5X5X5X5X5X5X*X|.@XL.:.K G G H G 2 I.s G | 0X0X0X>X@.b.!.V 3X+.p.0X0X0X>Xf 5 R S.H G H H G K 1.@X&XN.5X5X5X5X5X5X5X5X",
"5X5X5X5X5X5X5X5X=X%.V q 9 e 9 0 -.2 L.H ! -.1X0X0X0X0X6XZ a m.0X0X0X0X0XT.J.X.E ^.u A r 8 8 q b %.).2X5X5X5X5X5X5X5X5X",
"5X5X5X5X5X5X5X5X5X5X5X5X-Xt.}.U.Y B P.K @X4X/.).6X9X'.Z G G i &.3X0X<X$.U. X6.! ^.u Y K.W.d.5X5X7X5X5X5X5X5X5X5X5X5X5X",
"5X5X5X5X5X5X5X5X5X5X5X5Xu.0.W w B e.@XK G Y T J e e r r i h e 4 i w u K w.@X7.q.Z.` n u ;.{.l.5X5X5X5X5X5X5X5X5X5X5X5X",
"5X5X5X5X5X5X5X5X5X5X5X5X1X=X-X1X5X1X~.:.G G G G H G $ B.].].'.- 8 H Q XX$X$XF.@X).5X5X,X_.-X5X5X5X5X5X5X5X5X5X5X5X5X5X",
"5X5X5X5X5X5X5X5X5X5X5X5X5X5X5X5X5X5Xd.XXY G G G G G % % * , * # y E @X$X$X$X$X/.,X5X5X5X5X5X5X5X5X5X5X5X5X5X5X5X5X5X5X",
"5X5X5X5X5X5X5X5X5X5X5X5X5X5X5X5X5X5X1Xf.oXP H 7 7 f + ..8.8.o.$ 6 X.4X@XI.$X}._.5X5X5X5X7X5X5X5X5X5X5X5X5X5X5X5X5X5X5X",
"5X5X5X5X5X5X5X5X5X5X5X5X5X5X5X5X5X5X5X1Xy.oX<.l 6 5 & ^ 8.8.4.x 6 f E 3.XX/._.5X5X5X5X5X5X5X5X5X5X5X5X5X5X5X5X5X5X5X5X",
"5X5X5X5X5X5X5X5X5X5X5X5X5X5X5X5X5X5X5X5X5Xh.i.@Xq.1.! S 2 ( C ! 1.L.&X}.g.:X5X5X5X5X5X5X5X5X5X5X5X5X5X5X5X5X5X5X5X5X5X",
"5X5X5X5X5X5X5X5X5X5X5X5X5X5X5X5X5X5X5X5X5X5X1Xh.i.i.W.[.%X&X&X+XQ.n.k.=X5X5X5X5X5X5X5X5X5X5X5X5X5X5X5X5X5X5X5X5X5X5X5X",
"5X5X5X5X5X5X5X5X5X5X5X5X5X5X5X5X5X5X5X5X5X5X5X5X5X5X1X-Xl.l.l.=X1X5X5X5X5X5X5X5X5X5X5X5X5X5X5X5X5X5X5X5X5X5X5X5X5X5X5X"
};
